Coordinates
version=1
nRows=11
nColumns=40
inDegrees=yes

Units are S.I. units (second, meters, Newtons, ...)
Angles are in degrees.

endheader
time	pelvis_tilt	pelvis_list	pelvis_rotation	pelvis_tx	pelvis_ty	pelvis_tz	hip_flexion_r	hip_adduction_r	hip_rotation_r	knee_angle_r	knee_angle_r_beta	ankle_angle_r	subtalar_angle_r	mtp_angle_r	hip_flexion_l	hip_adduction_l	hip_rotation_l	knee_angle_l	knee_angle_l_beta	ankle_angle_l	subtalar_angle_l	mtp_angle_l	lumbar_extension	lumbar_bending	lumbar_rotation	arm_flex_r	arm_add_r	arm_rot_r	elbow_flex_r	pro_sup_r	wrist_flex_r	wrist_dev_r	arm_flex_l	arm_add_l	arm_rot_l	elbow_flex_l	pro_sup_l	wrist_flex_l	wrist_dev_l
     41.97500000	     -6.52951161	     -4.91489742	     -1.49650618	      1.06552195	      0.91979766	      0.48277371	     -2.67239075	     -0.81295394	    -17.14189759	     18.19848762	     18.19848762	     17.64973641	     14.58080361	     -4.17356291	     29.77015953	     -6.75784575	     -0.48845795	     27.55058807	     27.55058807	      7.65683783	    -15.59616262	     11.20062884	     -9.74182915	      8.10038018	      5.61757402	     33.56697723	    -24.07225729	      5.43220740	    128.06747275	     43.18575911	      0.00000000	      0.00000000	    -17.56001689	     -9.21101939	      0.52641147	     34.97920178	     45.12255939	      0.00000000	      0.00000000
     41.98685714	     -6.63047676	     -4.81338247	     -1.54133285	      1.06604565	      0.92061745	      0.47977966	     -2.15454224	     -1.48652115	    -16.84733087	     19.89897744	     19.89897744	     16.34398224	     13.94656517	     -7.29998385	     29.22087348	     -6.47901553	     -0.66893975	     27.56608699	     27.56608699	      8.36001843	    -15.50148947	     11.18985623	     -9.76579147	      8.02101196	      5.92089490	     30.59494620	    -25.07713763	      3.27039635	    128.54686059	     43.30767249	      0.00000000	      0.00000000	    -16.87145446	     -9.75072849	      1.24715888	     37.77271537	     45.10035938	      0.00000000	      0.00000000
     41.99871429	     -6.69590341	     -4.70795046	     -1.59348855	      1.06651109	      0.92149015	      0.47684545	     -1.33962529	     -2.25387596	    -16.42708978	     22.27431773	     22.27431773	     15.66243232	     13.18698981	     -8.35524404	     28.57101862	     -6.21230934	     -0.91819622	     27.46293598	     27.46293598	      8.92759431	    -15.32044407	     10.91715825	     -9.73269261	      7.99860357	      5.46835048	     28.39948893	    -25.65349673	      3.14034605	    127.40470128	     43.34816528	      0.00000000	      0.00000000	    -15.91119015	     -9.91169922	      1.23264283	     38.83106311	     45.12704219	      0.00000000	      0.00000000
     42.01057143	     -6.70379915	     -4.70386856	     -1.60159632	      1.06690184	      0.92229297	      0.47414990	     -0.48173051	     -2.79825700	    -15.65564242	     24.59582273	     24.59582273	     13.43802350	     11.35577189	    -13.24444437	     27.87758711	     -6.04131792	     -1.07503997	     27.36555202	     27.36555202	      9.42170560	    -15.17027551	     10.47870950	     -9.79816317	      7.95661091	      5.53907031	     25.34850185	    -26.01958668	      0.75196441	    126.50742723	     43.50193316	      0.00000000	      0.00000000	    -15.49473332	    -10.53098146	      1.56765934	     42.47954376	     45.16029387	      0.00000000	      0.00000000
     42.02242857	     -6.69177992	     -4.68425736	     -1.60461127	      1.06714823	      0.92305697	      0.47148759	      0.69264819	     -3.40152025	    -14.75936069	     27.47343826	     27.47343826	     11.09184397	      9.05302297	    -17.72267508	     27.15430525	     -5.85930641	     -1.24473973	     27.23051071	     27.23051071	      9.88935657	    -14.97934113	      9.99991418	     -9.84359177	      7.95424781	      5.28855767	     22.81656579	    -26.26064551	     -0.34720249	    124.74399461	     43.63917226	      0.00000000	      0.00000000	    -14.69550760	    -11.09038618	      2.15790262	     44.79268805	     45.18241980	      0.00000000	      0.00000000
     42.03428571	     -6.70454086	     -4.59686881	     -1.60688607	      1.06717535	      0.92368889	      0.46878949	      2.35256507	     -4.23201589	    -13.99705763	     31.25500630	     31.25500630	      9.54809572	      7.36106082	    -18.96664404	     26.47721212	     -5.59628902	     -1.40772479	     27.10604693	     27.10604693	     10.38166202	    -14.80475086	      9.71158041	     -9.86244510	      7.92617347	      4.89058052	     20.55677675	    -26.63800801	     -0.53696855	    122.75458714	     43.70570128	      0.00000000	      0.00000000	    -13.50585648	    -11.40252380	      2.02678915	     46.03107197	     45.22810967	      0.00000000	      0.00000000
     42.04614286	     -6.65342398	     -4.66754709	     -1.56941918	      1.06709626	      0.92434530	      0.46643793	      4.02362711	     -4.57625769	    -12.62981081	     34.80575573	     34.80575573	      6.47168363	      3.59636976	    -22.86360798	     25.75832797	     -5.50483947	     -1.46035981	     26.98951882	     26.98951882	     10.81807709	    -14.66062861	      9.21013663	     -9.95703490	      7.94120352	      4.64862661	     18.05876977	    -26.17018096	     -2.69922608	    119.95522222	     43.89287282	      0.00000000	      0.00000000	    -12.97798991	    -12.13105585	      2.28209253	     49.77137539	     45.28943716	      0.00000000	      0.00000000
     42.05800000	     -6.62436321	     -4.66923082	     -1.55990757	      1.06679361	      0.92485661	      0.46409885	      6.08712674	     -5.07253989	    -11.41877472	     38.97170832	     38.97170832	      3.86614713	      0.61217008	    -24.10688279	     25.08200332	     -5.33456131	     -1.50111173	     26.88560647	     26.88560647	     11.25456348	    -14.62022242	      8.84629129	    -10.01437964	      7.94551489	      4.42927528	     15.78253662	    -26.12324863	     -3.63336798	    117.02586394	     44.02678040	      0.00000000	      0.00000000	    -11.84583758	    -12.69515209	      2.42500062	     52.06000893	     45.34268951	      0.00000000	      0.00000000
     42.06985714	     -6.60008794	     -4.60232207	     -1.57921349	      1.06637545	      0.92529593	      0.46189490	      8.35287543	     -5.56686279	    -10.16930010	     43.27018531	     43.27018531	      1.04729483	     -2.35654249	    -24.47388479	     24.38170199	     -5.12070079	     -1.60972388	     26.71991802	     26.71991802	     11.69124512	    -14.52977658	      8.48583499	    -10.05686488	      7.88854365	      4.20887043	     13.71551680	    -25.71998124	     -4.80926844	    113.90892312	     44.17113201	      0.00000000	      0.00000000	    -10.76939494	    -13.33994709	      2.58715353	     54.63777632	     45.39722712	      0.00000000	      0.00000000
     42.08171429	     -6.56541276	     -4.54342740	     -1.62207125	      1.06575668	      0.92568341	      0.45986759	     10.77056717	     -5.94373831	     -8.90495924	     47.59294485	     47.59294485	     -1.82234497	     -5.21393229	    -23.98679656	     23.67722193	     -4.92896872	     -1.72458205	     26.54355172	     26.54355172	     12.08949890	    -14.46848049	      8.14353378	    -10.12955398	      7.79166496	      4.02780635	     11.74895110	    -25.20576544	     -6.04345350	    110.50208011	     44.32254002	      0.00000000	      0.00000000	     -9.55176536	    -14.01177281	      2.76823802	     57.36436815	     45.45337904	      0.00000000	      0.00000000
     42.09357143	     -6.49581593	     -4.45349769	     -1.71634221	      1.06510911	      0.92609216	      0.45805299	     13.23008445	     -6.25817685	     -7.69736954	     51.76488964	     51.76488964	     -4.53855238	     -7.64119709	    -22.57622574	     22.90694176	     -4.73498964	     -1.90200660	     26.32400993	     26.32400993	     12.49266461	    -14.39508142	      7.75496972	    -10.24301285	      7.66552579	      3.89069779	     10.04441920	    -24.38121948	     -7.51232724	    106.86519799	     44.48957193	      0.00000000	      0.00000000	     -8.41561951	    -14.80754019	      3.12093700	     60.43957852	     45.50921515	      0.00000000	      0.00000000
